<svg xmlns="http://www.w3.org/2000/svg" width="43.531" height="59.91" viewBox="0 0 43.531 59.91">
  <metadata><?xpacket begin="﻿" id="W5M0MpCehiHzreSzNTczkc9d"?>
<x:xmpmeta xmlns:x="adobe:ns:meta/" x:xmptk="Adobe XMP Core 5.6-c142 79.160924, 2017/07/13-01:06:39        ">
   <rdf:RDF xmlns:rdf="http://www.w3.org/1999/02/22-rdf-syntax-ns#">
      <rdf:Description rdf:about=""/>
   </rdf:RDF>
</x:xmpmeta>
                                                                                                    
                                                                                                    
                                                                                                    
                                                                                                    
                                                                                                    
                                                                                                    
                                                                                                    
                                                                                                    
                                                                                                    
                                                                                                    
                                                                                                    
                                                                                                    
                                                                                                    
                                                                                                    
                                                                                                    
                                                                                                    
                                                                                                    
                                                                                                    
                                                                                                    
                                                                                                    
                           
<?xpacket end="w"?></metadata>
<defs>
    <style>
      .cls-1 {
        fill: #ff3000;
        fill-rule: evenodd;
      }
    </style>
  </defs>
  <path id="Forma_1" data-name="Forma 1" class="cls-1" d="M246.25,1095.81a136.686,136.686,0,0,0-10.93-20.25,4.619,4.619,0,0,0-1.267-1.29,0.886,0.886,0,0,0-.989,1.47,2.888,2.888,0,0,1,.772.79,134.877,134.877,0,0,1,10.789,19.98A0.885,0.885,0,0,0,246.25,1095.81Zm6.842,20.67a117.042,117.042,0,0,0-5.247-16.82,0.885,0.885,0,1,0-1.647.65,114.8,114.8,0,0,1,5.167,16.57,4.579,4.579,0,0,1-4.459,5.61H236.352v-10.15l3.108-2.21a0.889,0.889,0,0,0-1.028-1.45l-2.08,1.49v-5.5a1.938,1.938,0,0,0-1.933-1.94h-5.781a2.012,2.012,0,0,0-2.006,2.01v10.53l-2.977-2.38a1.924,1.924,0,0,0-2.717.3,8.71,8.71,0,0,0-.994,1.3,2.009,2.009,0,0,0,.532,2.48l5.344,4.29a2.13,2.13,0,0,1,.764,1.23H216a4.488,4.488,0,0,1-4.386-5.47,125.79,125.79,0,0,1,17.56-40.49,2.693,2.693,0,0,1,.752-0.77,0.89,0.89,0,0,0-1-1.47,4.648,4.648,0,0,0-1.234,1.27,127.6,127.6,0,0,0-17.8,41.06,6.259,6.259,0,0,0,6.113,7.64h10.632v7.97h-1.541a0.885,0.885,0,1,0,0,1.77h12.8a0.885,0.885,0,1,0,0-1.77h-1.54v-7.97h10.553A6.352,6.352,0,0,0,253.092,1116.48Zm-18.511,15.75H228.4c0-10.16.089-9.85-.3-10.79-0.5-1.2-.721-1.2-6.523-5.85a0.236,0.236,0,0,1-.037-0.33c0.034-.04.778-0.98,0.825-1.01a0.146,0.146,0,0,1,.122-0.01c0.021,0.01,3.3,2.63,3.417,2.71a1.629,1.629,0,0,0,2.493-1.38v-10.83a0.225,0.225,0,0,1,.1-0.19,0.2,0.2,0,0,1,.131-0.04h5.781a0.16,0.16,0,0,1,.162.16v18.71h0v8.85Z" transform="translate(-209.719 -1074.09)"/>
</svg>
