<svg xmlns="http://www.w3.org/2000/svg" width="50.57" height="50.59" viewBox="0 0 50.57 50.59">
  <metadata><?xpacket begin="﻿" id="W5M0MpCehiHzreSzNTczkc9d"?>
<x:xmpmeta xmlns:x="adobe:ns:meta/" x:xmptk="Adobe XMP Core 5.6-c142 79.160924, 2017/07/13-01:06:39        ">
   <rdf:RDF xmlns:rdf="http://www.w3.org/1999/02/22-rdf-syntax-ns#">
      <rdf:Description rdf:about=""/>
   </rdf:RDF>
</x:xmpmeta>
                                                                                                    
                                                                                                    
                                                                                                    
                                                                                                    
                                                                                                    
                                                                                                    
                                                                                                    
                                                                                                    
                                                                                                    
                                                                                                    
                                                                                                    
                                                                                                    
                                                                                                    
                                                                                                    
                                                                                                    
                                                                                                    
                                                                                                    
                                                                                                    
                                                                                                    
                                                                                                    
                           
<?xpacket end="w"?></metadata>
<defs>
    <style>
      .cls-1 {
        fill: #ff3000;
        fill-rule: evenodd;
      }
    </style>
  </defs>
  <path class="cls-1" d="M1149.25,1086.16a2.373,2.373,0,0,0-1.71.71,2.408,2.408,0,0,0,0,3.42,2.373,2.373,0,0,0,1.71.71A2.42,2.42,0,0,0,1149.25,1086.16Zm0.57,2.99a0.838,0.838,0,0,1-.57.24,0.81,0.81,0,0,1-.57-1.38,0.763,0.763,0,0,1,.57-0.24,0.8,0.8,0,0,1,.57.24A0.815,0.815,0,0,1,1149.82,1089.15Zm33.33,33.38a2.415,2.415,0,0,0-1.71-4.13,2.415,2.415,0,0,0-1.71,4.13,2.373,2.373,0,0,0,1.71.71A2.406,2.406,0,0,0,1183.15,1122.53Zm-2.28-2.28a0.763,0.763,0,0,1,.57-0.24,0.8,0.8,0,0,1,.57.24,0.815,0.815,0,0,1,0,1.14,0.838,0.838,0,0,1-.57.24A0.81,0.81,0,0,1,1180.87,1120.25Zm-27.12-16.12a0.821,0.821,0,0,0,1.14,0,0.815,0.815,0,0,0,0-1.14l-12.86-12.89,8.74-8.75,5.7,5.71-2.47,2.47a0.81,0.81,0,0,0,.57,1.38,0.812,0.812,0,0,0,.57-0.24l2.47-2.47,2.15,2.16-2.47,2.47a0.81,0.81,0,0,0,.57,1.38,0.779,0.779,0,0,0,.57-0.24l2.48-2.47,2.15,2.16-2.47,2.47a0.81,0.81,0,0,0,1.14,1.15l3.04-3.05a0.8,0.8,0,0,0,0-1.14l-13.43-13.46a0.815,0.815,0,0,0-1.14,0l-9.89,9.9a0.815,0.815,0,0,0,0,1.14Zm23.18,1.14a0.8,0.8,0,0,0-1.14,0l-3.04,3.04a0.827,0.827,0,0,0,0,1.15,0.846,0.846,0,0,0,.57.23,0.81,0.81,0,0,0,.57-0.23l2.47-2.48,2.16,2.16-2.47,2.48a0.815,0.815,0,0,0,0,1.14,0.821,0.821,0,0,0,1.14,0l2.47-2.48,2.16,2.16-2.47,2.48a0.8,0.8,0,0,0,0,1.14,0.779,0.779,0,0,0,.57.24,0.812,0.812,0,0,0,.57-0.24l2.47-2.47,5.7,5.71-8.74,8.75-12.87-12.88a0.8,0.8,0,0,0-1.14,0,0.815,0.815,0,0,0,0,1.14l13.44,13.45a0.779,0.779,0,0,0,.57.24,0.812,0.812,0,0,0,.57-0.24l9.88-9.89a0.827,0.827,0,0,0,0-1.15Zm5.86-9.3c0.01,0,6.64-6.64,6.64-6.64a4.05,4.05,0,0,0,0-5.71l-3.04-3.05a4.038,4.038,0,0,0-5.7,0l-1.52,1.53a0.8,0.8,0,0,0,0,1.14,0.815,0.815,0,0,0,1.14,0l1.52-1.52a2.408,2.408,0,0,1,3.42,0l3.04,3.04a2.438,2.438,0,0,1,0,3.43l-3.23,3.23-7.03-7.04a0.815,0.815,0,0,0-1.14,0l-2.84,2.84-28.41,28.46h-0.01c-0.01.01-.01,0.02-0.02,0.03a0.913,0.913,0,0,0-.15.23l-3.1,7.55-0.01.01-2.21,5.39a0.8,0.8,0,0,0,.17.87,0.818,0.818,0,0,0,.58.24,0.8,0.8,0,0,0,.3-0.06l5.38-2.22h0.01l7.53-3.11a0.974,0.974,0,0,0,.24-0.15,0.038,0.038,0,0,0,.02-0.02,0.01,0.01,0,0,0,.01-0.01Zm-28.7,26.47a5.214,5.214,0,0,0-.8-1.02,4.866,4.866,0,0,0-2.21-1.3l21.07-21.1a0.806,0.806,0,0,0-1.14-1.14l-21.07,21.1a5.076,5.076,0,0,0-1.29-2.22,5.636,5.636,0,0,0-1.03-.79l27-27.04,2.66,2.67-3.23,3.23a0.81,0.81,0,0,0,.57,1.38,0.779,0.779,0,0,0,.57-0.24l3.23-3.23,2.66,2.66Zm-7.63,3.58-2.41-2.41,2.6-6.33a3.284,3.284,0,0,1,.86.63,3.184,3.184,0,0,1,.94,2.77,0.817,0.817,0,0,0,.23.71,0.8,0.8,0,0,0,.71.22,3.173,3.173,0,0,1,2.76.95,3.236,3.236,0,0,1,.63.85Zm31-39.93,6.46,6.48-1.7,1.69-6.46-6.47Zm-34.07,39.14,1.45,1.46-2.47,1.02Z" transform="translate(-1140.06 -1079.41)"/>
</svg>
